<svg id="レイヤー_1" data-name="レイヤー 1" xmlns="http://www.w3.org/2000/svg" viewBox="0 0 593 531.25"><defs><style>.cls-1{fill:#69c;}.cls-2{fill:#9cf;}.cls-3{fill:#fff;}</style></defs><path class="cls-1" d="M511.5,646.75c-162.11,0-294-60.6-294-135.08v-.44l0-2.51h0V336.63h588V508.72h0v2.51c0,.1,0,.44,0,.44C805.5,586.15,673.62,646.75,511.5,646.75Z" transform="translate(-215 -118)"/><path class="cls-1" d="M803,339.13V506.22h0l0,5c0,.13,0,.25,0,.38v0c0,17.29-7.4,34.17-22,50.18s-35.33,30.22-62,42.57C663.7,630.11,590,644.25,511.5,644.25S359.3,630.11,304,604.42c-26.63-12.35-47.47-26.68-61.95-42.57S220,529,220,511.7v-.07c0-.13,0-.25,0-.38l0-5h0V339.13H803m5-5H215V511.22h0c0,.15,0,.3,0,.45,0,76,132.75,137.58,296.5,137.58S808,587.65,808,511.67c0-.15,0-.3,0-.45h0V334.13Z" transform="translate(-215 -118)"/><ellipse class="cls-2" cx="296.5" cy="215.68" rx="294" ry="135.08"/><path class="cls-1" d="M511.5,201.1c78.49,0,152.2,14.14,207.56,39.83,26.62,12.35,47.46,26.68,62,42.56s22,32.9,22,50.19-7.4,34.17-22,50.18-35.33,30.21-62,42.57C663.7,452.11,590,466.26,511.5,466.26S359.3,452.11,304,426.43c-26.63-12.36-47.47-26.68-61.95-42.57S220,351,220,333.68s7.4-34.17,22-50.19,35.32-30.21,61.95-42.56C359.3,215.24,433,201.1,511.5,201.1m0-5C347.75,196.1,215,257.7,215,333.68S347.75,471.26,511.5,471.26,808,409.66,808,333.68,675.26,196.1,511.5,196.1Z" transform="translate(-215 -118)"/><path class="cls-3" d="M511.5,426.08c-126.38,0-230.14-41.07-231.31-91.55l0-1c0-.05,0-.51,0-.51.46-56.46,24.82-109.7,68.58-150S450.4,120.5,511.5,120.5,630.4,142.71,674.24,183s68.12,93.5,68.58,149.93v.39c0,.11,0,.21,0,.32l0,.85C741.65,385,637.88,426.08,511.5,426.08Z" transform="translate(-215 -118)"/><path class="cls-1" d="M511.5,123a240.92,240.92,0,0,1,88.44,16.64,231.65,231.65,0,0,1,72.61,45.24,212.84,212.84,0,0,1,49.25,66.79A194.75,194.75,0,0,1,740.32,333V333c0,.15,0,.29,0,.44v0l0,.94c-.27,11.33-6.12,22.46-17.42,33.1s-27.81,20.48-48.66,28.87c-43.5,17.5-101.29,27.14-162.74,27.14s-119.24-9.64-162.74-27.14c-20.85-8.39-37.22-18.1-48.66-28.87S283,345.8,282.69,334.47l0-.87s0-.08,0-.12,0-.29,0-.44V333a194.75,194.75,0,0,1,18.52-81.32,212.87,212.87,0,0,1,49.26-66.79,231.49,231.49,0,0,1,72.6-45.24A241,241,0,0,1,511.5,123m0-5c-127.69,0-232.85,96.88-233.82,215,0,.24,0,.49,0,.73,0,.09,0,.18,0,.28s0,.42,0,.63h0c1.2,52,105.41,94,233.81,94s232.61-42,233.81-94h0c0-.21,0-.42,0-.63a2.72,2.72,0,0,0,0-.28c0-.24,0-.49,0-.73C744.36,214.88,639.19,118,511.5,118Z" transform="translate(-215 -118)"/></svg>